<svg width="170" height="39" viewBox="0 0 170 39" fill="none" xmlns="http://www.w3.org/2000/svg">
<path d="M39.6802 17.5431V15.3543H40.3704C40.7145 15.3543 40.9922 15.3128 41.2037 15.2299C41.4151 15.1429 41.583 15.0164 41.7073 14.8506C41.8359 14.6806 41.9436 14.4692 42.0307 14.2163L42.1862 13.7997L37.5597 4.63385H40.3455L43.3428 10.9019L45.8488 4.63385H48.5973L44.2071 14.8692C43.9957 15.3418 43.7449 15.7813 43.4547 16.1875C43.1687 16.5938 42.8018 16.9213 42.3541 17.17C41.9063 17.4188 41.3342 17.5431 40.6378 17.5431H39.6802ZM50.0539 17.369V4.63385H52.7465V9.88835H58.2124V4.63385H60.8987V17.369H58.2124V12.1083H52.7465V17.369H50.0539ZM63.1187 4.63385H65.805V12.6431H65.9107L71.4139 4.63385H73.7707V17.369H71.0782V9.35357H70.9849L65.4505 17.369H63.1187V4.63385ZM75.9953 17.369V4.63385H81.0944C82.0312 4.63385 82.8127 4.77272 83.4387 5.05047C84.0646 5.32823 84.5352 5.71377 84.8502 6.20709C85.1653 6.69626 85.3228 7.26006 85.3228 7.89848C85.3228 8.39595 85.2233 8.8333 85.0243 9.21055C84.8254 9.58365 84.5518 9.89042 84.2035 10.1309C83.8594 10.3672 83.4656 10.5351 83.022 10.6345V10.7589C83.5071 10.7796 83.961 10.9164 84.3839 11.1693C84.8109 11.4222 85.157 11.7767 85.4223 12.2327C85.6876 12.6845 85.8203 13.2235 85.8203 13.8494C85.8203 14.5252 85.6524 15.1283 85.3166 15.659C84.985 16.1855 84.4937 16.6021 83.8429 16.9089C83.192 17.2156 82.3898 17.369 81.4364 17.369H75.9953ZM78.6879 15.1677H80.8829C81.6333 15.1677 82.1805 15.0247 82.5246 14.7387C82.8687 14.4485 83.0407 14.0629 83.0407 13.582C83.0407 13.2297 82.9557 12.9188 82.7857 12.6493C82.6158 12.3798 82.3733 12.1684 82.0582 12.015C81.7473 11.8616 81.3763 11.7849 80.9451 11.7849H78.6879V15.1677ZM78.6879 9.96297H80.6839C81.0529 9.96297 81.3804 9.89871 81.6664 9.7702C81.9566 9.63754 82.1846 9.45099 82.3505 9.21055C82.5204 8.97011 82.6054 8.68199 82.6054 8.3462C82.6054 7.88604 82.4417 7.51501 82.1142 7.23311C81.7908 6.95122 81.3306 6.81027 80.7337 6.81027H78.6879V9.96297ZM87.5723 17.369V4.63385H96.1536V6.85379H90.2649V9.88835H95.7121V12.1083H90.2649V15.1491H96.1785V17.369H87.5723ZM98.2943 17.369V4.63385H103.319C104.285 4.63385 105.108 4.81832 105.787 5.18728C106.467 5.55209 106.985 6.05992 107.342 6.71077C107.703 7.35748 107.883 8.10368 107.883 8.94938C107.883 9.79507 107.701 10.5413 107.336 11.188C106.971 11.8347 106.442 12.3384 105.75 12.699C105.062 13.0597 104.229 13.24 103.25 13.24H100.048V11.0823H102.815C103.333 11.0823 103.76 10.9931 104.096 10.8149C104.436 10.6325 104.689 10.3817 104.855 10.0625C105.025 9.73911 105.11 9.36808 105.11 8.94938C105.11 8.52653 105.025 8.15757 104.855 7.84251C104.689 7.5233 104.436 7.27664 104.096 7.10253C103.756 6.92427 103.325 6.83514 102.803 6.83514H100.987V17.369H98.2943ZM120.868 9.0924H118.145C118.095 8.74003 117.994 8.42704 117.84 8.15343C117.687 7.87568 117.49 7.63938 117.249 7.44454C117.009 7.2497 116.731 7.10046 116.416 6.99682C116.105 6.89318 115.767 6.84136 115.403 6.84136C114.743 6.84136 114.169 7.00511 113.68 7.33261C113.191 7.65596 112.812 8.12856 112.542 8.75039C112.273 9.36808 112.138 10.1184 112.138 11.0014C112.138 11.9093 112.273 12.6721 112.542 13.2898C112.816 13.9075 113.197 14.3738 113.686 14.6889C114.175 15.004 114.741 15.1615 115.384 15.1615C115.745 15.1615 116.078 15.1138 116.385 15.0185C116.696 14.9231 116.972 14.7843 117.212 14.6019C117.453 14.4153 117.651 14.1894 117.809 13.9241C117.971 13.6587 118.083 13.3561 118.145 13.0162L120.868 13.0286C120.798 13.6131 120.622 14.1769 120.34 14.72C120.062 15.2589 119.687 15.7419 119.214 16.1689C118.746 16.5917 118.186 16.9275 117.535 17.1762C116.889 17.4208 116.157 17.5431 115.34 17.5431C114.204 17.5431 113.189 17.2861 112.293 16.7721C111.402 16.258 110.697 15.5139 110.179 14.5397C109.665 13.5655 109.408 12.3861 109.408 11.0014C109.408 9.61267 109.669 8.43118 110.192 7.45698C110.714 6.48277 111.423 5.74071 112.318 5.23081C113.214 4.71676 114.221 4.45973 115.34 4.45973C116.078 4.45973 116.762 4.56337 117.392 4.77065C118.027 4.97793 118.588 5.28055 119.078 5.67853C119.567 6.07236 119.965 6.55531 120.271 7.1274C120.582 7.69949 120.781 8.35449 120.868 9.0924ZM122.799 4.63385H125.486V12.6431H125.591L131.095 4.63385H133.451V17.369H130.759V9.35357H130.665L125.131 17.369H122.799V4.63385ZM135.191 6.85379V4.63385H145.65V6.85379H141.751V17.369H139.09V6.85379H135.191ZM147.373 17.369V4.63385H155.954V6.85379H150.065V9.88835H155.512V12.1083H150.065V15.1491H155.979V17.369H147.373ZM157.61 6.85379V4.63385H168.069V6.85379H164.17V17.369H161.508V6.85379H157.61Z" fill="white"/>
<path d="M45.8642 35L41.7725 29.5714H40.8522V35H38.1597V22.2648H40.8522V27.3514H41.3932L45.6217 22.2648H48.9734L44.0049 28.1723L49.2035 35H45.8642ZM61.5422 28.6324C61.5422 30.0212 61.279 31.2027 60.7525 32.1769C60.2301 33.1511 59.5171 33.8952 58.6134 34.4093C57.7138 34.9192 56.7023 35.1741 55.5788 35.1741C54.4471 35.1741 53.4314 34.9171 52.5318 34.403C51.6322 33.889 50.9213 33.1449 50.3989 32.1707C49.8766 31.1964 49.6154 30.017 49.6154 28.6324C49.6154 27.2436 49.8766 26.0622 50.3989 25.088C50.9213 24.1137 51.6322 23.3717 52.5318 22.8618C53.4314 22.3477 54.4471 22.0907 55.5788 22.0907C56.7023 22.0907 57.7138 22.3477 58.6134 22.8618C59.5171 23.3717 60.2301 24.1137 60.7525 25.088C61.279 26.0622 61.5422 27.2436 61.5422 28.6324ZM58.8124 28.6324C58.8124 27.7328 58.6776 26.9742 58.4082 26.3565C58.1428 25.7388 57.7677 25.2704 57.2826 24.9512C56.7976 24.6319 56.2297 24.4723 55.5788 24.4723C54.928 24.4723 54.36 24.6319 53.875 24.9512C53.39 25.2704 53.0127 25.7388 52.7432 26.3565C52.4779 26.9742 52.3453 27.7328 52.3453 28.6324C52.3453 29.532 52.4779 30.2906 52.7432 30.9083C53.0127 31.526 53.39 31.9945 53.875 32.3137C54.36 32.6329 54.928 32.7925 55.5788 32.7925C56.2297 32.7925 56.7976 32.6329 57.2826 32.3137C57.7677 31.9945 58.1428 31.526 58.4082 30.9083C58.6776 30.2906 58.8124 29.532 58.8124 28.6324ZM74.7733 26.7234H72.0497C71.9999 26.371 71.8983 26.058 71.745 25.7844C71.5916 25.5067 71.3947 25.2704 71.1542 25.0755C70.9138 24.8807 70.636 24.7314 70.321 24.6278C70.01 24.5242 69.6722 24.4723 69.3074 24.4723C68.6482 24.4723 68.0741 24.6361 67.5849 24.9636C67.0957 25.2869 66.7164 25.7595 66.4469 26.3814C66.1775 26.9991 66.0427 27.7494 66.0427 28.6324C66.0427 29.5403 66.1775 30.3031 66.4469 30.9208C66.7205 31.5385 67.1019 32.0048 67.5911 32.3199C68.0803 32.635 68.6462 32.7925 69.2887 32.7925C69.6494 32.7925 69.9831 32.7448 70.2899 32.6495C70.6008 32.5541 70.8765 32.4152 71.1169 32.2328C71.3574 32.0463 71.5563 31.8204 71.7139 31.555C71.8755 31.2897 71.9875 30.9871 72.0497 30.6472L74.7733 30.6596C74.7028 31.2441 74.5266 31.8079 74.2447 32.351C73.967 32.8899 73.5918 33.3729 73.1192 33.7999C72.6508 34.2227 72.0911 34.5585 71.4403 34.8072C70.7936 35.0518 70.0619 35.1741 69.2452 35.1741C68.1093 35.1741 67.0936 34.9171 66.1982 34.403C65.3069 33.889 64.6022 33.1449 64.084 32.1707C63.5699 31.1964 63.3129 30.017 63.3129 28.6324C63.3129 27.2436 63.5741 26.0622 64.0964 25.088C64.6187 24.1137 65.3276 23.3717 66.2231 22.8618C67.1185 22.3477 68.1259 22.0907 69.2452 22.0907C69.9831 22.0907 70.6671 22.1944 71.2972 22.4016C71.9315 22.6089 72.4932 22.9115 72.9824 23.3095C73.4716 23.7033 73.8696 24.1863 74.1763 24.7584C74.4873 25.3305 74.6862 25.9855 74.7733 26.7234ZM78.4763 26.9721H81.5109C82.5224 26.9721 83.393 27.1359 84.1226 27.4634C84.8563 27.7867 85.4222 28.2448 85.8202 28.8376C86.2182 29.4304 86.4151 30.129 86.4109 30.9332C86.4151 31.7333 86.2182 32.4401 85.8202 33.0537C85.4222 33.6631 84.8563 34.1398 84.1226 34.4839C83.393 34.828 82.5224 35 81.5109 35H76.7538V22.2648H79.4402V32.836H81.5109C81.9959 32.836 82.4042 32.749 82.7359 32.5748C83.0675 32.3966 83.3183 32.1624 83.4883 31.8722C83.6624 31.5778 83.7474 31.2566 83.7433 30.9083C83.7474 30.4026 83.5567 29.9756 83.1712 29.6273C82.7898 29.275 82.2363 29.0988 81.5109 29.0988H78.4763V26.9721ZM90.1357 22.2648V35H87.4494V22.2648H90.1357ZM100.802 22.2648V24.4848H95.0436V35H92.351V22.2648H100.802ZM102.526 22.2648H105.212V30.2741H105.318L110.821 22.2648H113.178V35H110.485V26.9846H110.392L104.858 35H102.526V22.2648ZM115.402 35V22.2648H118.095V27.5193H123.561V22.2648H126.247V35H123.561V29.7393H118.095V35H115.402ZM130.662 35H127.777L132.173 22.2648H135.643L140.033 35H137.148L133.958 25.175H133.858L130.662 35ZM130.482 29.9942H137.297V32.096H130.482V29.9942Z" fill="white"/>
<path d="M0 31V2L8.10951 6.70351V26.2965L0 31ZM25 16.5L16.8905 21.2035V11.7965L25 16.5Z" fill="white"/>
<path d="M8 26.7735L25 36V26.7735L16.8379 22L8 26.7735Z" fill="white"/>
</svg>
